<svg width="16" height="17" viewBox="0 0 16 17" fill="none" xmlns="http://www.w3.org/2000/svg">
<path d="M1.33301 6.50016C1.33301 5.24283 1.33301 4.61483 1.72367 4.22416C2.11434 3.8335 2.74234 3.8335 3.99967 3.8335H11.9997C13.257 3.8335 13.885 3.8335 14.2757 4.22416C14.6663 4.61483 14.6663 5.24283 14.6663 6.50016C14.6663 6.81416 14.6663 6.9715 14.569 7.0695C14.471 7.16683 14.313 7.16683 13.9997 7.16683H1.99967C1.68567 7.16683 1.52834 7.16683 1.43034 7.0695C1.33301 6.9715 1.33301 6.8135 1.33301 6.50016ZM1.33301 12.5002C1.33301 13.7575 1.33301 14.3855 1.72367 14.7762C2.11434 15.1668 2.74234 15.1668 3.99967 15.1668H11.9997C13.257 15.1668 13.885 15.1668 14.2757 14.7762C14.6663 14.3855 14.6663 13.7575 14.6663 12.5002V9.16683C14.6663 8.85283 14.6663 8.6955 14.569 8.5975C14.471 8.50016 14.313 8.50016 13.9997 8.50016H1.99967C1.68567 8.50016 1.52834 8.50016 1.43034 8.5975C1.33301 8.6955 1.33301 8.8535 1.33301 9.16683V12.5002Z" fill="#515151"/>
<path d="M4.66602 2.5V4.5M11.3327 2.5V4.5" stroke="#515151" stroke-width="1.33333" stroke-linecap="round"/>
</svg>
