<svg width="16" height="17" viewBox="0 0 16 17" fill="none" xmlns="http://www.w3.org/2000/svg">
<path d="M12.1046 11.7547L11.3133 12.5374C10.7302 13.1099 9.97331 13.8459 9.04265 14.7454C8.76293 15.0159 8.38907 15.1671 7.99998 15.1671C7.61089 15.1671 7.23703 15.0159 6.95731 14.7454L4.63065 12.4814C4.33731 12.1943 4.0922 11.9521 3.89531 11.7547C3.08356 10.9429 2.53076 9.90863 2.30682 8.78265C2.08288 7.65667 2.19786 6.48956 2.63721 5.42892C3.07656 4.36828 3.82056 3.46174 4.77512 2.82394C5.72969 2.18613 6.85194 1.8457 7.99998 1.8457C9.14802 1.8457 10.2703 2.18613 11.2248 2.82394C12.1794 3.46174 12.9234 4.36828 13.3628 5.42892C13.8021 6.48956 13.9171 7.65667 13.6931 8.78265C13.4692 9.90863 12.9164 10.9429 12.1046 11.7547ZM9.66731 7.83341C9.66731 7.39138 9.49172 6.96746 9.17916 6.6549C8.8666 6.34234 8.44268 6.16674 8.00065 6.16674C7.55862 6.16674 7.1347 6.34234 6.82214 6.6549C6.50958 6.96746 6.33398 7.39138 6.33398 7.83341C6.33398 8.27544 6.50958 8.69936 6.82214 9.01192C7.1347 9.32448 7.55862 9.50008 8.00065 9.50008C8.44268 9.50008 8.8666 9.32448 9.17916 9.01192C9.49172 8.69936 9.66731 8.27544 9.66731 7.83341Z" fill="#515151"/>
</svg>
