<svg width="16" height="15" viewBox="0 0 16 15" fill="none" xmlns="http://www.w3.org/2000/svg">
<path fill-rule="evenodd" clip-rule="evenodd" d="M0.5 0.625C0.5 0.45924 0.565848 0.300269 0.683058 0.183058C0.800269 0.0658481 0.95924 0 1.125 0H14.875C15.0408 0 15.1997 0.0658481 15.3169 0.183058C15.4342 0.300269 15.5 0.45924 15.5 0.625V6.25H14.25V1.25H1.75V13.75H4.25625V15H1.125C0.95924 15 0.800269 14.9342 0.683058 14.8169C0.565848 14.6997 0.5 14.5408 0.5 14.375V0.625ZM15.4925 9.165L9.8425 14.8137C9.72535 14.9305 9.56667 14.9961 9.40125 14.9961C9.23583 14.9961 9.07715 14.9305 8.96 14.8137L5.8225 11.6762L6.705 10.7913L9.40125 13.4875L14.6087 8.28L15.4925 9.165Z" fill="#515151"/>
</svg>
