<svg width="16" height="17" viewBox="0 0 16 17" fill="none" xmlns="http://www.w3.org/2000/svg">
<path d="M8 1.5C6.54184 1.50172 5.14389 2.08174 4.11282 3.11281C3.08174 4.14389 2.50172 5.54184 2.5 7C2.49866 8.19155 2.88786 9.3507 3.608 10.3C3.608 10.3 3.758 10.4975 3.7825 10.526L8 15.5L12.2195 10.5235C12.2415 10.497 12.392 10.3 12.392 10.3L12.3925 10.2985C13.1122 9.34954 13.5012 8.19098 13.5 7C13.4983 5.54184 12.9183 4.14389 11.8872 3.11281C10.8561 2.08174 9.45817 1.50172 8 1.5ZM8.5 9.5H7.5V8.5H8.5V9.5ZM8.5 7.5H7.5V6.5H8.5V7.5ZM10.5 9.5H9.5V5.5H6.5V9.5H5.5V5.5C5.5 5.23478 5.60536 4.98043 5.7929 4.79289C5.98043 4.60536 6.23479 4.5 6.5 4.5H9.5C9.76522 4.5 10.0196 4.60536 10.2071 4.79289C10.3946 4.98043 10.5 5.23478 10.5 5.5V9.5Z" fill="#515151"/>
</svg>
