<svg width="36" height="40" viewBox="0 0 36 40" fill="none" xmlns="http://www.w3.org/2000/svg">
<path d="M30.3139 29.7642L27.9399 32.1122C26.1906 33.8296 23.9199 36.0376 21.1279 38.7362C20.2888 39.5476 19.1672 40.0012 17.9999 40.0012C16.8327 40.0012 15.7111 39.5476 14.8719 38.7362L7.89194 31.9442C7.01194 31.0829 6.27661 30.3562 5.68594 29.7642C3.25068 27.3288 1.59228 24.2259 0.920459 20.848C0.248637 17.47 0.593566 13.9687 1.91163 10.7868C3.22969 7.60485 5.46168 4.88523 8.32537 2.97181C11.1891 1.05839 14.5558 0.0371094 17.9999 0.0371094C21.4441 0.0371094 24.8108 1.05839 27.6745 2.97181C30.5382 4.88523 32.7702 7.60485 34.0883 10.7868C35.4063 13.9687 35.7513 17.47 35.0794 20.848C34.4076 24.2259 32.7492 27.3288 30.3139 29.7642ZM23.0019 18.0002C23.0019 16.6741 22.4752 15.4024 21.5375 14.4647C20.5998 13.527 19.328 13.0002 18.0019 13.0002C16.6759 13.0002 15.4041 13.527 14.4664 14.4647C13.5287 15.4024 13.0019 16.6741 13.0019 18.0002C13.0019 19.3263 13.5287 20.5981 14.4664 21.5358C15.4041 22.4734 16.6759 23.0002 18.0019 23.0002C19.328 23.0002 20.5998 22.4734 21.5375 21.5358C22.4752 20.5981 23.0019 19.3263 23.0019 18.0002Z" fill="#3C74FF"/>
</svg>
