<svg width="44" height="32" viewBox="0 0 44 32" fill="none" xmlns="http://www.w3.org/2000/svg">
<path fill-rule="evenodd" clip-rule="evenodd" d="M6 0.5C4.54131 0.5 3.14236 1.07946 2.11091 2.11091C1.07946 3.14236 0.5 4.54131 0.5 6V26C0.5 27.4587 1.07946 28.8576 2.11091 29.8891C3.14236 30.9205 4.54131 31.5 6 31.5H38C39.4587 31.5 40.8576 30.9205 41.8891 29.8891C42.9205 28.8576 43.5 27.4587 43.5 26V6C43.5 4.54131 42.9205 3.14236 41.8891 2.11091C40.8576 1.07946 39.4587 0.5 38 0.5H6ZM36.134 17.002C36.2707 16.8565 36.377 16.6853 36.4467 16.4982C36.5164 16.3111 36.548 16.112 36.5398 15.9126C36.5315 15.7131 36.4835 15.5173 36.3986 15.3366C36.3137 15.156 36.1936 14.9941 36.0453 14.8604C35.897 14.7268 35.7235 14.6241 35.535 14.5583C35.3465 14.4926 35.1468 14.4651 34.9475 14.4776C34.7483 14.49 34.5536 14.5421 34.3747 14.6308C34.1959 14.7195 34.0365 14.8429 33.906 14.994L33.886 15.016C33.7493 15.1615 33.643 15.3327 33.5733 15.5198C33.5036 15.7069 33.472 15.906 33.4802 16.1054C33.4885 16.3049 33.5365 16.5007 33.6214 16.6814C33.7063 16.862 33.8264 17.0239 33.9747 17.1576C34.123 17.2912 34.2965 17.3939 34.485 17.4597C34.6735 17.5254 34.8732 17.5529 35.0724 17.5404C35.2717 17.528 35.4664 17.4759 35.6453 17.3872C35.8241 17.2985 35.9835 17.1751 36.114 17.024L36.134 17.002ZM10.024 14.882C10.1705 15.0139 10.2897 15.1734 10.3745 15.3514C10.4594 15.5293 10.5083 15.7223 10.5185 15.9192C10.5287 16.1161 10.5 16.3131 10.434 16.4989C10.3681 16.6847 10.2661 16.8556 10.134 17.002L10.114 17.024C9.98349 17.1751 9.82414 17.2985 9.64529 17.3872C9.46644 17.4759 9.27169 17.528 9.07245 17.5404C8.87321 17.5529 8.67349 17.5254 8.48499 17.4597C8.2965 17.3939 8.12303 17.2912 7.97474 17.1576C7.82645 17.0239 7.70632 16.862 7.62141 16.6814C7.5365 16.5007 7.48851 16.3049 7.48024 16.1054C7.47198 15.906 7.50361 15.7069 7.57328 15.5198C7.64296 15.3327 7.74927 15.1615 7.886 15.016L7.906 14.994C8.17232 14.6986 8.54505 14.5211 8.94222 14.5005C9.3394 14.4799 9.72851 14.6178 10.024 14.884M22 8.5C20.0109 8.5 18.1032 9.29018 16.6967 10.6967C15.2902 12.1032 14.5 14.0109 14.5 16C14.5 17.9891 15.2902 19.8968 16.6967 21.3033C18.1032 22.7098 20.0109 23.5 22 23.5C23.9891 23.5 25.8968 22.7098 27.3033 21.3033C28.7098 19.8968 29.5 17.9891 29.5 16C29.5 14.0109 28.7098 12.1032 27.3033 10.6967C25.8968 9.29018 23.9891 8.5 22 8.5Z" fill="#3C74FF"/>
</svg>
