<svg width="40" height="38" viewBox="0 0 40 38" fill="none" xmlns="http://www.w3.org/2000/svg">
<path fill-rule="evenodd" clip-rule="evenodd" d="M22.4562 1.37598C21.754 0.82976 20.8898 0.533203 20.0002 0.533203C19.1106 0.533203 18.2464 0.82976 17.5442 1.37598L0.776208 14.416C-0.727792 15.59 0.100207 18 2.00621 18H4.19021L5.83021 34.398C5.9289 35.385 6.39082 36.3001 7.12628 36.9657C7.86173 37.6313 8.81827 37.9999 9.81021 38H30.1902C31.1821 37.9999 32.1387 37.6313 32.8741 36.9657C33.6096 36.3001 34.0715 35.385 34.1702 34.398L35.8102 18H37.9942C39.8982 18 40.7302 15.59 39.2242 14.418L22.4562 1.37598ZM20.0002 28C21.5915 28 23.1176 27.3678 24.2428 26.2426C25.3681 25.1174 26.0002 23.5913 26.0002 22C26.0002 20.4087 25.3681 18.8826 24.2428 17.7573C23.1176 16.6321 21.5915 16 20.0002 16C18.4089 16 16.8828 16.6321 15.7576 17.7573C14.6323 18.8826 14.0002 20.4087 14.0002 22C14.0002 23.5913 14.6323 25.1174 15.7576 26.2426C16.8828 27.3678 18.4089 28 20.0002 28Z" fill="#3C74FF"/>
</svg>
