<svg width="16" height="16" viewBox="0 0 16 16" fill="none" xmlns="http://www.w3.org/2000/svg">
<path d="M13.8333 0.5C14.2754 0.5 14.6993 0.675595 15.0118 0.988155C15.3244 1.30072 15.5 1.72464 15.5 2.16667V13.8333C15.5 14.2754 15.3244 14.6993 15.0118 15.0118C14.6993 15.3244 14.2754 15.5 13.8333 15.5H2.16667C1.72464 15.5 1.30072 15.3244 0.988155 15.0118C0.675595 14.6993 0.5 14.2754 0.5 13.8333V2.16667C0.5 1.72464 0.675595 1.30072 0.988155 0.988155C1.30072 0.675595 1.72464 0.5 2.16667 0.5H13.8333ZM11.9167 5.79167C12.1 5.61667 12.1 5.325 11.9167 5.15L10.85 4.08333C10.8087 4.03971 10.759 4.00495 10.7038 3.9812C10.6487 3.95745 10.5892 3.9452 10.5292 3.9452C10.4691 3.9452 10.4097 3.95745 10.3545 3.9812C10.2993 4.00495 10.2496 4.03971 10.2083 4.08333L9.375 4.91667L11.0833 6.625L11.9167 5.79167ZM3.83333 10.45V12.1667H5.55L10.6 7.11667L8.88333 5.4L3.83333 10.45Z" fill="#2A72B3"/>
</svg>
